<svg width="50" height="50" viewBox="0 0 50 50" fill="none" xmlns="http://www.w3.org/2000/svg">
<path fill-rule="evenodd" clip-rule="evenodd" d="M18.7374 12.875C15.5885 12.875 12.901 15.3962 12.875 18.7283C12.8709 21.9895 15.5253 24.6001 18.7365 24.6001C21.8904 24.6001 24.5737 22.0749 24.5998 18.7467C24.6039 15.4824 21.9459 12.875 18.7374 12.875ZM18.7869 16.3117C18.804 15.9334 18.9454 15.4996 19.2687 14.9505C20.4804 15.1197 21.5116 15.8583 22.0829 16.887C20.8127 16.5551 19.837 16.8792 19.0436 17.3274C18.8704 16.999 18.7702 16.6789 18.7869 16.3117ZM16.3116 18.6879C15.9332 18.6708 15.4994 18.5294 14.9504 18.2061C15.1196 16.9945 15.8582 15.9632 16.8869 15.3919C16.555 16.6622 16.8791 17.6379 17.3273 18.4312C16.9989 18.6044 16.6788 18.7046 16.3116 18.6879ZM20.5879 22.0831C20.9198 20.8128 20.5956 19.8371 20.1475 19.0437C20.4758 18.8705 20.796 18.7704 21.1632 18.787C21.5415 18.8042 21.9754 18.9455 22.5244 19.2688C22.3552 20.4805 21.6166 21.5118 20.5879 22.0831ZM18.206 22.5245C16.9942 22.3552 15.9627 21.6164 15.3915 20.5874C16.4908 20.8754 17.4481 20.7021 18.4311 20.1476C18.6043 20.476 18.7045 20.7961 18.6878 21.1633C18.6707 21.5417 18.5293 21.9755 18.206 22.5245Z" fill="#AFAFAF"/>
<path fill-rule="evenodd" clip-rule="evenodd" d="M28.9094 12.875C28.6391 12.875 28.3801 12.9824 28.189 13.1734L26.7359 14.6266C26.5449 14.8176 26.4375 15.0767 26.4375 15.3469V17.7688C26.4375 18.3314 26.8936 18.7875 27.4562 18.7875H33.2687C33.8314 18.7875 34.2875 18.3314 34.2875 17.7688V15.3469C34.2875 15.0767 34.1801 14.8176 33.9891 14.6266L32.536 13.1734C32.345 12.9823 32.0858 12.875 31.8156 12.875H28.9094ZM28.475 15.7688L29.3313 14.9125H31.3936L32.25 15.7688V16.75H28.475V15.7688Z" fill="#AFAFAF"/>
<path fill-rule="evenodd" clip-rule="evenodd" d="M28.9094 20.625C28.6391 20.625 28.3801 20.7324 28.189 20.9234L26.7359 22.3766C26.5449 22.5676 26.4375 22.8267 26.4375 23.0969V25.5187C26.4375 26.0814 26.8936 26.5375 27.4562 26.5375H33.2687C33.8314 26.5375 34.2875 26.0814 34.2875 25.5187V23.0969C34.2875 22.8267 34.1801 22.5676 33.9891 22.3766L32.536 20.9234C32.345 20.7323 32.0858 20.625 31.8156 20.625H28.9094ZM28.475 23.5188L29.3313 22.6625H31.3936L32.25 23.5188V24.5H28.475V23.5188Z" fill="#AFAFAF"/>
<path fill-rule="evenodd" clip-rule="evenodd" d="M10.0187 9C9.45615 9 9 9.45608 9 10.0187V29.3937C9 29.9564 9.45615 30.4125 10.0187 30.4125H12.875V32.7844C12.875 35.2158 14.853 37.1937 17.2844 37.1937C23.0548 37.1937 26.5159 37.1924 28.5644 37.1916L28.9506 37.1914C29.9453 37.191 30.5556 37.1908 30.9172 37.1911C31.098 37.1913 31.2165 37.1915 31.2898 37.192L31.3422 37.1924C31.3682 38.8002 32.6842 40.1 34.298 40.1H36.175C36.7208 40.1 37.1665 39.6707 37.1925 39.1312H39.0812C39.6439 39.1312 40.1 38.6752 40.1 38.1125C40.1 37.5498 39.6439 37.0938 39.0812 37.0938H37.1937V35.2562H39.0812C39.6439 35.2562 40.1 34.8002 40.1 34.2375C40.1 33.6748 39.6439 33.2188 39.0812 33.2188H37.1925C37.1665 32.6793 36.7208 32.25 36.175 32.25H34.298C32.6924 32.25 31.37 33.5399 31.3422 35.1574C31.1812 35.1558 30.3866 35.1559 26.0875 35.156C24.046 35.1561 21.2141 35.1562 17.2844 35.1562C15.9766 35.1562 14.9125 34.0922 14.9125 32.7844V30.4125H37.1437C37.7064 30.4125 38.1625 29.9564 38.1625 29.3937V10.0187C38.1625 9.45608 37.7064 9 37.1437 9H10.0187ZM11.0375 28.375V11.0375H36.125V28.375H14.9125V26.4875C14.9125 25.9248 14.4564 25.4688 13.8938 25.4688C13.3311 25.4688 12.875 25.9248 12.875 26.4875V28.375H11.0375ZM33.3793 35.2062C33.3793 34.6997 33.7915 34.2875 34.298 34.2875H35.1562V38.0625H34.298C33.7915 38.0625 33.3793 37.6503 33.3793 37.1437V35.2062Z" fill="#AFAFAF"/>
</svg>